HIERARCHY
ROOT Hips
{
  OFFSET -273.158 89.797 -265.332
  CHANNELS 6 Xposition Yposition Zposition Zrotation Xrotation Yrotation
  JOINT ToSpine
  {
    OFFSET -2.69724 7.43032 -0.144315
    CHANNELS 3 Zrotation Xrotation Yrotation
    JOINT Spine
    {
      OFFSET -0.0310711 10.7595 1.96963
      CHANNELS 3 Zrotation Xrotation Yrotation
      JOINT Spine1
      {
        OFFSET 13.1342 3.43533 0.764692
        CHANNELS 3 Zrotation Xrotation Yrotation
        JOINT Neck
        {
          OFFSET 29.8703 7.82586 -0.130764
          CHANNELS 3 Zrotation Xrotation Yrotation
          JOINT Head
          {
            OFFSET 9.52751 0.295786 -0.907742
            CHANNELS 3 Zrotation Xrotation Yrotation
            End Site
            {
              OFFSET 16.4037 0.713936 2.7358
            }
          }
        }
        JOINT LeftShoulder
        {
          OFFSET 27.5574 4.95586 2.47156
          CHANNELS 3 Zrotation Xrotation Yrotation
          JOINT LeftArm
          {
            OFFSET 1.20734 -0.998971 20.1238
            CHANNELS 3 Zrotation Xrotation Yrotation
            JOINT LeftForeArm
            {
              OFFSET 26.8049 -0.0536703 -0.155908
              CHANNELS 3 Zrotation Xrotation Yrotation
              JOINT LeftHand
              {
                OFFSET 26.6817 0 0.320147
                CHANNELS 3 Zrotation Xrotation Yrotation
                End Site
                {
                  OFFSET 18.6119 0 0.382219
                }
              }
            }
          }
        }
        JOINT RightShoulder
        {
          OFFSET 27.5927 4.71444 -2.65209
          CHANNELS 3 Zrotation Xrotation Yrotation
          JOINT RightArm
          {
            OFFSET 2.83739 -1.17114 -18.7564
            CHANNELS 3 Zrotation Xrotation Yrotation
            JOINT RightForeArm
            {
              OFFSET 28.839 -0.0548439 1.22491
              CHANNELS 3 Zrotation Xrotation Yrotation
              JOINT RightHand
              {
                OFFSET 26.5114 0 -0.101894
                CHANNELS 3 Zrotation Xrotation Yrotation
                End Site
                {
                  OFFSET 18.2168 0 0
                }
              }
            }
          }
        }
      }
    }
  }
  JOINT LeftUpLeg
  {
    OFFSET -4.76168 -1.9167 -10.2353
    CHANNELS 3 Zrotation Xrotation Yrotation
    JOINT LeftLeg
    {
      OFFSET 2.55951 -42.0585 -8.02213
      CHANNELS 3 Zrotation Xrotation Yrotation
      JOINT LeftFoot
      {
        OFFSET 3.16357 -42.5282 -3.95426
        CHANNELS 3 Zrotation Xrotation Yrotation
        JOINT LeftToeBase
        {
          OFFSET 0.346054 -6.02161 12.8035
          CHANNELS 3 Zrotation Xrotation Yrotation
          End Site
          {
            OFFSET 0.134235 -1.35082 5.13018
          }
        }
      }
    }
  }
  JOINT RightUpLeg
  {
    OFFSET -4.94151 -1.41743 10.6446
    CHANNELS 3 Zrotation Xrotation Yrotation
    JOINT RightLeg
    {
      OFFSET -2.56294 -42.0364 -7.94377
      CHANNELS 3 Zrotation Xrotation Yrotation
      JOINT RightFoot
      {
        OFFSET -3.0952 -42.555 -4.02241
        CHANNELS 3 Zrotation Xrotation Yrotation
        JOINT RightToeBase
        {
          OFFSET -0.0828122 -6.13587 12.8035
          CHANNELS 3 Zrotation Xrotation Yrotation
          End Site
          {
            OFFSET -0.131328 -1.35082 5.13018
          }
        }
      }
    }
  }
}
MOTION
Frames:	8
Frame Time:	0.0333333
-85.0804 86.6288 -90.1446 34.9264 -39.6345 -41.7892 -70.1915 0 88.8779 128.466 72.0351 -51.0983 -6.84448 27.9541 0.0385971 -166.724 22.3683 172.837 -160.1 62.1519 -165.228 0.117335 -14.337 -32.998 -75.5781 54.9505 -57.1293 5.05771 3.65529 -54.1483 0.420957 0.000575402 0.35866 -1.70344 7.07078 38.5365 -80.2019 -37.4947 90.3007 18.4913 0.45713 91.1414 0.58676 0.00033114 0.0646654 -1.17402 3.24044 101.118 -9.81456 69.5418 -0.953887 4.95495 -16.4992 -1.32488 2.50517 -8.78566 14.2458 -52.1936 2.8602 95.5432 5.33027 60.0077 3.42689 9.40787 23.3082 -4.74351 2.84 -12.7243 -25.3104 
-79.2069 86.1602 -84.4417 37.0446 -37.6275 -40.7301 -70.1915 0 88.8779 123.471 70.9197 -49.5639 -4.82685 25.8454 0.569171 -166.785 21.6875 172.239 -159.118 61.4571 -164.682 -0.126698 -15.2582 -33.765 -81.4875 50.4959 -57.9259 4.90473 3.12885 -57.4456 0.420957 0.000575402 0.35866 -1.91435 7.07188 41.486 -75.3753 -38.0972 86.1252 16.0281 -2.07407 82.6541 0.58676 0.00033114 0.0646654 -5.42385 -0.313035 101.288 -12.797 72.4269 -1.31547 4.99328 -19.6041 -1.4404 4.44124 -12.3718 19.0295 -39.3059 3.53349 94.9832 18.0972 81.3354 -22.5055 2.14937 17.8039 -1.81511 1.20773 -3.04043 -6.24153 
-72.7877 86.5423 -78.7078 38.1497 -35.4177 -39.7609 -70.1915 0 88.8779 119.283 70.0515 -46.3036 -3.53031 23.9856 0.688246 -167.514 21.3437 172.201 -159.705 61.1142 -164.406 -0.377573 -16.0966 -34.7565 -83.2029 44.829 -64.906 6.59003 3.81935 -59.7688 0.420957 0.000575402 0.35866 -1.97509 6.76076 43.637 -70.6441 -39.9632 82.2014 13.484 -4.60386 71.4202 0.58676 0.00033114 0.0646654 -11.5467 -3.41884 101.499 -12.4479 71.3403 -4.63933 4.77898 -21.9207 -1.5428 6.3392 -15.2251 22.3966 -24.5304 4.40304 94.595 154.486 80.5465 -155.481 -0.639575 19.279 -1.13109 2.18741 -10.0086 -12.9976 
-65.9604 86.9696 -72.4832 39.4323 -34.2406 -37.4233 -70.1915 0 88.8779 119.161 68.1991 -44.8946 -4.24227 22.1707 0.926563 -166.184 20.7467 171.876 -159.07 60.4944 -164.825 -0.244955 -15.73 -33.9237 -86.1967 41.7505 -70.5613 7.4672 3.56065 -64.2934 0.420957 0.000575402 0.35866 -2.18589 6.88604 46.0548 -65.3807 -41.9103 76.8722 8.41832 -4.69972 61.1314 0.58676 0.00033114 0.0646654 -20.1375 -4.75038 100.615 -10.5564 68.2279 -8.25859 4.6348 -23.9457 -1.63721 8.2564 -17.7072 21.9248 -10.6289 5.71285 92.8165 166.456 71.2435 -171.202 -6.24206 21.101 0.472603 1.94103 -14.7198 -4.21066 
-58.4862 87.9582 -65.7135 42.6247 -32.4021 -31.7027 -70.1915 0 88.8779 120.777 65.1025 -43.2602 -5.43967 19.0986 2.35296 -164.934 19.9332 172.06 -158.134 59.6028 -166.625 -0.0864542 -15.4289 -32.1383 -94.0279 42.6197 -68.3401 12.4708 3.26216 -75.009 0.420957 0.000575402 0.35866 -2.17253 6.60894 47.171 -59.8512 -44.835 71.2653 4.62254 -3.1907 55.8699 0.58676 0.00033114 0.0646654 -31.4144 -5.03041 97.1534 -8.08249 62.399 -13.2933 3.8852 -23.9956 -1.70455 9.10363 -18.8179 20.6568 -0.610047 4.82554 88.6904 167.676 69.4881 -173.907 -11.3784 17.5107 1.98314 2.10965 -16.7117 -3.5976 
-50.137 89.7797 -58.2968 42.8674 -31.8754 -27.1813 -70.1915 0 88.8779 118.799 63.6626 -35.1746 -5.11266 16.8284 1.87683 -163.93 18.1855 172.535 -157.105 57.7225 -168.866 0.361134 -13.6475 -30.2374 -96.2149 44.1578 -67.9689 12.447 0.707034 -86.1381 0.420957 0.000575402 0.35866 -2.22419 6.33811 49.297 -56.3956 -45.8838 64.6699 3.53871 -2.6233 54.1156 0.58676 0.00033114 0.0646654 -42.1831 -2.31023 93.024 -5.60851 54.1977 -14.4826 0.247793 -20.8379 -1.7596 8.0503 -17.3096 13.8599 6.39524 5.38866 84.965 163.082 75.5467 -166.45 -9.83383 15.483 1.53835 2.22987 -17.3057 -10.285 
-41.4917 91.5157 -50.4989 42.9258 -34.2004 -24.6941 -70.1915 0 88.8779 117.152 63.9552 -28.5937 -3.73908 16.5792 1.06486 -159.765 16.819 172.614 -153.347 56.1308 -171.107 0.488089 -13.109 -29.4899 -96.1427 44.4406 -67.8677 14.0021 -1.39373 -94.8324 0.420957 0.000575402 0.35866 -2.30222 6.36746 50.2837 -57.7737 -47.4112 56.5571 2.7186 -2.05545 53.8086 0.58676 0.00033114 0.0646654 -53.6913 2.15581 93.4846 -3.96743 44.6332 -14.9129 -1.91608 -4.81101 -0.300766 12.3867 -24.9507 4.02159 8.00145 7.47362 81.8494 113.087 86.4944 -117.994 -9.87247 16.719 1.55811 2.4098 -20.3465 -6.27869 
-33.1201 93.6239 -43.014 45.2691 -33.0391 -22.5109 -70.1915 0 88.8779 114.186 63.0405 -26.0119 -3.13596 14.2993 3.43016 -156.196 15.9943 172.87 -150.531 55.031 -173.174 0.433679 -13.4449 -29.1635 -94.485 45.1274 -67.1602 14.554 -3.80947 -103.55 0.420957 0.000575402 0.35866 -2.29685 6.53214 49.3387 -62.507 -48.4152 48.6702 2.98101 -2.17585 54.6538 0.58676 0.00033114 0.0646654 -62.7406 1.57504 88.7553 -3.23984 37.1513 -15.8969 -7.90852 10.0602 2.39908 6.97481 -14.7605 -0.63842 5.74138 6.14475 81.1747 9.87579 75.398 -12.8163 -5.98407 13.6921 0.578322 1.53855 -9.40968 -4.99067 
